<svg xmlns="http://www.w3.org/2000/svg" viewBox="0 0 116.35 308.54"><defs><style>.cls-1{fill:#3fa9f5;}</style></defs><title>资源 3</title><g id="图层_2" data-name="图层 2"><g id="图层_1-2" data-name="图层 1"><path class="cls-1" d="M116.35,171.19c-1.35,3.72-3.43,6.43-7.68,7.39-3.41.77-9.15-1.18-10.64-4.34a26.08,26.08,0,0,1-2.63-11.54c.16-20.7.13-41.4.1-62.09,0-1.16-.35-2.78-1.15-3.4-1.81-1.4-3.64,0-3.64,2.68,0,9.2,0,18.4,0,27.6q0,58.65,0,117.3c0,15.6,0,31.2,0,46.8,0,4.25-.67,8.3-3.45,11.82-3.45,4.36-9.26,6.14-15.65,4.51-5.12-1.3-9.47-6-9.87-11.2-.44-5.77-.66-11.57-.66-17.35q0-48.45,0-96.89c0-1.73.45-4-2.33-3.91a3.34,3.34,0,0,0-2.2,1.71c-.38.7-.11,1.76-.11,2.66q0,54,0,108c0,4.31-.48,8.53-3.35,12.15A15.3,15.3,0,0,1,37.25,308c-4.68-1.28-9.58-6-9.73-11.66-.14-5.49-.5-11-.5-16.47q0-57.75.06-115.49,0-31.8-.08-63.6c0-.4,0-.8,0-1.2,0-1.82-.76-2.78-2.71-2.74s-2.09,1.47-2.09,2.9q0,14.1,0,28.2c0,12.5.26,25-.13,37.5-.11,3.4-1.86,6.87-3.35,10.08-1,2.19-7.57,3.77-9.94,2.9C3.09,176.3,0,172,0,165.84c0-25-.07-50,0-75C.11,76,7.78,64.22,20.58,59.27a26.24,26.24,0,0,1,9-1.95c19.1-.15,38.2-.42,57.29.1,13.23.36,22.29,7.68,27.61,19.68.68,1.53,1.25,3.12,1.86,4.68Z"/><path class="cls-1" d="M84,24.82C82.56,39.92,73.64,49.89,58.64,49.9s-25-10-25-25.15C33.68,9.89,44.1,0,58.7,0,73.54,0,82.76,10.57,84,24.82Z"/></g></g></svg>