<svg xmlns="http://www.w3.org/2000/svg" viewBox="0 0 58.75 51.48"><defs><style>.cls-1{fill:#004928;}</style></defs><title>资源 4</title><g id="图层_2" data-name="图层 2"><g id="图层_1-2" data-name="图层 1"><path class="cls-1" d="M8.2,28.1c8,5.39,17,4.62,25.9,3.64a26.18,26.18,0,0,0,15.29-6.62c0,6.06.27,11.14-.09,16.17C49,44.8,46.11,46.73,43.16,48a43.06,43.06,0,0,1-32.61.61C5.73,46.78,2.8,43.68,3.49,38a67.81,67.81,0,0,0,.05-9c0-2,.28-3.43,2.78-2.33Z"/><path class="cls-1" d="M8.2,28.1,6.32,26.67c-4.27-6.06-3.64-9.48,3-12.57C20.48,8.91,31.89,9,43.22,13.54c3.12,1.26,6.13,3.29,6.12,7.15s-3.11,5.82-6.17,7.15c-9.85,4.27-20,4.42-30.24,1.53C11.37,28.93,10,27.7,8.2,28.1ZM26.84,13.15c-5.36.13-10.68.61-15.48,3.2-4,2.16-4.11,5.71,0,7.45a37.15,37.15,0,0,0,30-.14c1.66-.7,3.34-1.82,3.14-4.06S42.63,16.51,41,15.76C36.47,13.74,31.69,13.2,26.84,13.15Z"/><path class="cls-1" d="M26.43,8.34a35.88,35.88,0,0,0-4,0c-3.22.36-4.37-1-4.36-4.2S19.4-.24,22.55,0a48.21,48.21,0,0,0,6.93,0c3.07-.17,5.41,0,5.39,4.18s-2.46,4.3-5.48,4.07c-1-.07-2,0-3,0Z"/><path class="cls-1" d="M58.75,8.59c-2.31.51-4.89,2.07-6.07-1.81C52,4.62,50.34,5.34,49,5.31a76.15,76.15,0,0,1-12.88-.85C44,3.65,52.08.93,58.75,8.59Z"/><path class="cls-1" d="M1.93,3.81H16.64v1H1.89Z"/><path class="cls-1" d="M5.21,20.74c0-4.38,0-7.72,0-11.07,0-2.05.45-3.56,1.75-3.46S8.62,8,8.54,10C8.35,14.1,9.68,19.72,5.21,20.74Z"/><path class="cls-1" d="M48,12.05c-.55,2.34.79,6-1.29,6.08-2.44.12-2.34-3.63-2.21-6.54.1-2.09-.7-5.47,1.66-5.33C48.81,6.42,47.23,10.38,48,12.05Z"/><rect class="cls-1" x="27.67" y="6.33" width="2.67" height="23.62"/><rect class="cls-1" x="22.83" y="6.33" width="2.67" height="23.62"/><rect class="cls-1" y="2.82" width="50.62" height="4.21" rx="1.2" ry="1.2"/></g></g></svg>