<svg xmlns="http://www.w3.org/2000/svg" viewBox="0 0 30.52 45.89"><defs><style>.cls-1{fill:#006837;}</style></defs><title>资源 2</title><g id="图层_2" data-name="图层 2"><g id="图层_1-2" data-name="图层 1"><path class="cls-1" d="M13.44,45.89a43.07,43.07,0,0,1-4.52-1.41,14.9,14.9,0,0,1-8-18.6A84.88,84.88,0,0,1,7.44,12.45C9.71,8.6,12.15,4.86,14.51,1.07c.2-.33.44-.63.75-1.07.54.79,1,1.46,1.46,2.14C21.09,8.82,25.33,15.59,28.47,23a24.74,24.74,0,0,1,1.89,6c.78,5.4-1.26,9.83-5.31,13.36a14.51,14.51,0,0,1-7.24,3.34,5.73,5.73,0,0,0-.7.21ZM8.92,33.15A6.19,6.19,0,0,0,12,38.57a6.06,6.06,0,0,0,6.76-.12,6.33,6.33,0,0,0,2.91-5.34A16.91,16.91,0,0,1,8.92,33.15Zm2.5-5.73a2.52,2.52,0,0,0-2.54-2.57,2.61,2.61,0,0,0-2.52,2.62,2.57,2.57,0,0,0,2.57,2.46A2.51,2.51,0,0,0,11.41,27.42Zm10.23,2.5a2.58,2.58,0,0,0,2.57-2.57,2.62,2.62,0,0,0-2.55-2.51,2.56,2.56,0,0,0-2.53,2.49A2.5,2.5,0,0,0,21.64,29.92Z"/></g></g></svg>