<svg xmlns="http://www.w3.org/2000/svg" viewBox="0 0 35.13 43.91"><defs><style>.cls-1{fill:#40276a;}</style></defs><title>资源 1</title><g id="图层_2" data-name="图层 2"><g id="图层_1-2" data-name="图层 1"><path class="cls-1" d="M17.56,36.45l-.47-.73c-2.67-4.22-5.23-8.5-7.51-12.94a52.89,52.89,0,0,1-3-6.66,11.91,11.91,0,0,1-.75-3,13.89,13.89,0,0,1,.61-5.18,10.67,10.67,0,0,1,4.44-6A12,12,0,0,1,18.19,0a11.84,11.84,0,0,1,5.56,1.61,10.77,10.77,0,0,1,5,6.57,14.84,14.84,0,0,1,.56,4.51,9.7,9.7,0,0,1-.54,2.66,42.74,42.74,0,0,1-2.54,6.06c-1.92,3.89-4.08,7.64-6.35,11.33-.71,1.16-1.44,2.3-2.16,3.46Zm0-20.36a4.07,4.07,0,1,0-4-4.12A4.07,4.07,0,0,0,17.53,16.08Z"/><path class="cls-1" d="M22.82,29.67c.21-.22.41-.44.63-.65a.29.29,0,0,1,.21,0,30.13,30.13,0,0,1,4.78.83,14.29,14.29,0,0,1,3.69,1.45,9.17,9.17,0,0,1,1.34,1,4.47,4.47,0,0,1,.71,6.23,8.91,8.91,0,0,1-2.87,2.47,19.33,19.33,0,0,1-5.08,2,36.6,36.6,0,0,1-11,.94,31.85,31.85,0,0,1-7.5-1.26,16.23,16.23,0,0,1-5.14-2.46A7.18,7.18,0,0,1,.66,38a4.44,4.44,0,0,1,.92-5.73,10.12,10.12,0,0,1,3.36-1.92A24.9,24.9,0,0,1,10.4,29.1L11.5,29a.28.28,0,0,1,.2.05c.21.2.4.42.61.64l-.51.07A20.55,20.55,0,0,0,6,31.24a6.55,6.55,0,0,0-2.18,1.47,2.35,2.35,0,0,0-.22,3.18,6.15,6.15,0,0,0,2.08,1.76,16.45,16.45,0,0,0,4.45,1.66,33.57,33.57,0,0,0,10.19.7,27.91,27.91,0,0,0,5.4-.9,14.22,14.22,0,0,0,4.38-1.91A5.44,5.44,0,0,0,31.44,36a2.38,2.38,0,0,0-.21-3.31,7,7,0,0,0-2.38-1.53,19.53,19.53,0,0,0-4.66-1.26L23,29.7Z"/></g></g></svg>