<svg xmlns="http://www.w3.org/2000/svg" viewBox="0 0 58.75 51.48"><defs><style>.cls-1{fill:#004928;}</style></defs><title>资源 6</title><g id="图层_2" data-name="图层 2"><g id="图层_1-2" data-name="图层 1"><path class="cls-1" d="M50.55,3.67a1.19,1.19,0,0,0-1.13-.85H34.77C34.28,0,32.16-.08,29.48.06a48.2,48.2,0,0,1-6.93,0c-2.67-.24-4,.58-4.33,2.78H1.2A1.2,1.2,0,0,0,0,4V5.83A1.2,1.2,0,0,0,1.2,7H5.68a6.39,6.39,0,0,0-.46,2.64c0,2.26,0,4.52,0,7.1-2.48,2.5-2,5.5,1.11,9.9C3.82,25.56,3.51,27,3.54,29a67.8,67.8,0,0,1-.05,9c-.68,5.69,2.24,8.79,7.07,10.58A43.06,43.06,0,0,0,43.16,48c2.94-1.23,5.88-3.17,6.13-6.67.36-5,.09-10.11.09-16.17a26.18,26.18,0,0,1-15.29,6.62c-8.88,1-17.86,1.74-25.9-3.64,1.79-.4,3.17.83,4.74,1.27,10.27,2.89,20.39,2.74,30.24-1.53,3.06-1.33,6.16-3.28,6.17-7.15a6.15,6.15,0,0,0-1.49-4.11c.11-1.29-.23-3.14.1-4.53-.54-1.25.2-3.75-.5-5h2a1.2,1.2,0,0,0,1.2-1.2V5.22a1.89,1.89,0,0,1,2.06,1.55c1.18,3.89,3.76,2.32,6.07,1.81A14.28,14.28,0,0,0,50.55,3.67ZM25.5,8.32l.93,0v0l1.23,0v1.89q-1.08,0-2.17,0ZM18.67,7c.63,1.11,1.82,1.55,3.8,1.33l.36,0v2A41.37,41.37,0,0,0,9.34,14.09l-.76.38c0-1.52-.11-3.1,0-4.51A6.14,6.14,0,0,0,8.13,7ZM11.33,23.8c-4.08-1.74-4-5.29,0-7.45a28.21,28.21,0,0,1,11.48-3v13.4A37.88,37.88,0,0,1,11.33,23.8ZM25.5,26.88V13.2l1.34,0,.83,0V26.85C26.94,26.88,26.22,26.89,25.5,26.88Zm15.83-3.22a40.65,40.65,0,0,1-11,3V13.29A30.8,30.8,0,0,1,41,15.76c1.68.76,3.34,1.75,3.52,3.85S43,23,41.33,23.66Zm3.12-12.07c0,.79-.07,1.65,0,2.47-.39-.19-.78-.36-1.18-.52a45.41,45.41,0,0,0-12.89-3.22V8.38C32,8.45,33.48,8.28,34.26,7H44.7C44.17,8.13,44.52,10.16,44.45,11.59Z"/></g></g></svg>