<svg xmlns="http://www.w3.org/2000/svg" viewBox="0 0 226.06 226.36"><defs><style>.cls-1{fill:#003421;}</style></defs><title>资源 5</title><g id="图层_2" data-name="图层 2"><g id="图层_1-2" data-name="图层 1"><path class="cls-1" d="M8.5,151H26V56.25H44.37V97.3c5.37,0,10.16.13,14.93-.11,1,0,2.05-1.41,2.74-2.4a16.69,16.69,0,0,1,14.36-7.68q22.49-.12,45,0c5.49,0,10.29,2.16,13.23,6.77,1.82,2.85,3.83,3.66,6.89,3.52,3.63-.16,7.26,0,11.41,0V56.28h18.25c0,11.54,0,23,0,34.42,0,6.69,0,6.68,6.76,6.66,6.46,0,12.92,0,20,0v20.77h28.15v11.77H188.2V109.94H171.48v40.79h17.17v75.63H8.5Zm35.89-41.4c0,13.29-.08,25.89.15,38.49,0,1,2.17,2.86,3.36,2.88,12.65.19,25.3.12,37.95,0a4.52,4.52,0,0,0,3-1c3.13-3.36,6-6.93,9.09-10.34s3-7.47,1-11.13c-2.08-3.9-2.68-9.64-9.59-8.76-4.1.52-8.31.15-12.48.1-6.22-.07-11.27-2.36-14.86-7.67-.74-1.1-2.15-2.37-3.31-2.45C54.17,109.39,49.55,109.56,44.39,109.56Zm108.39,41.16V109.56c-4.93,0-9.55-.13-14.15.1a4.67,4.67,0,0,0-3,2.09c-3.85,5.85-9.31,8.19-16.15,8.06-6-.12-12.08,0-19.33,0,9,12.77,5.51,22.4-6.36,30.3l1.36.63Z"/><path class="cls-1" d="M197.59,56.77H0c6.2-7.93,12-15.34,17.77-22.71,8-10.2,16.17-20.32,24.11-30.59A7.94,7.94,0,0,1,48.94,0c33.31.12,66.61,0,99.92.15,1.79,0,4.28.54,5.26,1.77C168.5,19.82,182.68,37.88,197.59,56.77Z"/></g></g></svg>